<svg xmlns="http://www.w3.org/2000/svg" version="1.1" viewBox="458.3 0 218.92 219.22">
<path fill="#0074d9" d="   M 559.38 0.00   L 577.00 0.00   Q 582.62 0.93 588.21 1.98   Q 612.66 6.57 632.01 20.74   C 656.82 38.89 673.05 66.00 676.68 96.44   Q 677.31 101.74 677.21 106.94   C 677.11 111.55 677.39 116.21 676.89 120.78   Q 673.85 148.72 658.68 170.90   C 618.90 229.03 536.83 235.88 488.25 185.08   Q 465.44 161.23 459.56 127.85   Q 458.44 121.51 458.34 113.51   Q 458.20 102.68 458.58 98.96   C 461.21 72.99 472.46 49.34 490.96 31.31   Q 518.98 4.00 559.38 0.00   Z   M 666.68 109.61   A 98.93 98.93 0.0 0 0 567.75 10.68   A 98.93 98.93 0.0 0 0 468.82 109.61   A 98.93 98.93 0.0 0 0 567.75 208.54   A 98.93 98.93 0.0 0 0 666.68 109.61   Z"/>
<path fill="#0074d9" d="   M 535.55 56.09   L 611.18 100.06   A 11.05 11.05 0.0 0 1 611.18 119.16   L 535.55 163.13   A 11.05 11.05 0.0 0 1 518.95 153.57   L 518.95 65.65   A 11.05 11.05 0.0 0 1 535.55 56.09   Z"/>
</svg>