<svg xmlns="http://www.w3.org/2000/svg" version="1.1" xmlns:xlink="http://www.w3.org/1999/xlink" xmlns:svgjs="http://svgjs.dev/svgjs" width="1500" height="386" viewBox="0 0 1500 386"><g transform="matrix(1,0,0,1,-0.9087210974568052,-0.9217336046337721)"><svg viewBox="0 0 396 102" data-background-color="#ffffff" preserveAspectRatio="xMidYMid meet" height="386" width="1500" xmlns="http://www.w3.org/2000/svg" xmlns:xlink="http://www.w3.org/1999/xlink"><g id="tight-bounds" transform="matrix(1,0,0,1,0.23990236972861112,0.24356691106902417)"><svg viewBox="0 0 395.52 101.51267091731924" height="101.51267091731924" width="395.52"><g><svg viewBox="0 0 566.9479435164556 145.5107201088108" height="101.51267091731924" width="395.52"><g transform="matrix(1,0,0,1,0,45.30951273442706)"><svg viewBox="0 0 395.52 54.89169463995669" height="54.89169463995669" width="395.52"><g id="textblocktransform"><svg viewBox="0 0 395.52 54.89169463995669" height="54.89169463995669" width="395.52" id="textblock"><g><svg viewBox="0 0 395.52 54.89169463995669" height="54.89169463995669" width="395.52"><g transform="matrix(1,0,0,1,0,0)"><svg width="395.52" viewBox="3.64 -37.55 271.86 37.55" height="54.89169463995669" data-palette-color="#fcdb7c"><g class="wordmark-text-0" data-fill-palette-color="primary" id="text-0"><path d="M38.62-8.91L38.62-7.69Q38.62-6.52 38.22-5.18 37.82-3.83 36.9-2.69 35.99-1.54 34.52-0.77 33.06 0 30.93 0L30.93 0 6.84 0Q6.15 0 5.57-0.24 4.98-0.49 4.55-0.92 4.13-1.34 3.88-1.93 3.64-2.51 3.64-3.2L3.64-3.2 3.64-31.81Q3.64-32.47 3.88-33.06 4.13-33.64 4.55-34.08 4.98-34.52 5.57-34.77 6.15-35.01 6.84-35.01L6.84-35.01 28.08-35.01Q29.25-35.01 30.59-34.59 31.93-34.18 33.09-33.26 34.25-32.35 35.02-30.88 35.79-29.42 35.79-27.29L35.79-27.29 35.79-26.1Q35.79-24.41 35.23-22.47 34.67-20.53 33.42-18.8L33.42-18.8Q34.5-18.14 35.44-17.21 36.38-16.28 37.08-15.06 37.79-13.84 38.21-12.3 38.62-10.77 38.62-8.91L38.62-8.91ZM32.28-7.74L32.28-8.91Q32.28-10.16 31.88-11.15 31.49-12.13 30.79-12.84 30.08-13.55 29.08-13.93 28.08-14.31 26.83-14.31L26.83-14.31 12.52-14.31 12.52-20.7 23.97-20.7Q25.22-20.7 26.22-21.08 27.22-21.46 27.93-22.17 28.64-22.88 29.02-23.86 29.39-24.85 29.39-26.1L29.39-26.1 29.39-27.29Q29.39-28.66 28.08-28.66L28.08-28.66 9.99-28.66 9.99-6.35 30.93-6.35Q31.1-6.35 31.35-6.37 31.59-6.4 31.79-6.52 31.98-6.64 32.13-6.93 32.28-7.23 32.28-7.74L32.28-7.74ZM70.68-17.65L70.68-8.74Q70.68-7.42 70.21-5.9 69.75-4.37 68.71-3.06 67.67-1.76 66-0.88 64.33 0 61.94 0L61.94 0 50.49 0Q49.17 0 47.64-0.46 46.12-0.93 44.81-1.97 43.5-3 42.62-4.68 41.75-6.35 41.75-8.74L41.75-8.74Q41.75-10.06 42.21-11.6 42.67-13.13 43.71-14.44 44.75-15.75 46.42-16.63 48.09-17.5 50.49-17.5L50.49-17.5 61.94-17.5 61.94-11.45 50.49-11.45Q49.19-11.45 48.48-10.66 47.78-9.86 47.78-8.69L47.78-8.69Q47.78-7.45 48.59-6.75 49.41-6.05 50.53-6.05L50.53-6.05 61.94-6.05Q63.23-6.05 63.94-6.84 64.65-7.62 64.65-8.79L64.65-8.79 64.65-17.65Q64.65-18.9 63.88-19.63 63.11-20.36 61.94-20.36L61.94-20.36 48-20.36 48-26.39 61.94-26.39Q63.25-26.39 64.78-25.93 66.31-25.46 67.61-24.43 68.92-23.39 69.8-21.72 70.68-20.04 70.68-17.65L70.68-17.65ZM101.66-6.35L101.66 0 84.44 0Q83.12 0 81.56-0.46 80-0.93 78.67-1.99 77.34-3.05 76.45-4.75 75.56-6.45 75.56-8.91L75.56-8.91 75.56-17.5Q75.56-18.41 75.76-19.41 75.97-20.41 76.41-21.4 76.85-22.39 77.55-23.29 78.24-24.19 79.23-24.88 80.22-25.56 81.51-25.98 82.81-26.39 84.44-26.39L84.44-26.39 101.66-26.39 101.66-20.04 84.44-20.04Q83.2-20.04 82.55-19.41 81.9-18.77 81.9-17.46L81.9-17.46 81.9-8.91Q81.9-7.67 82.56-7.01 83.22-6.35 84.49-6.35L84.49-6.35 101.66-6.35ZM122.97-14.4L137.91 0 128.75 0 115.96-12.35Q114.89-13.33 114.96-14.79L114.96-14.79Q115.01-15.48 115.31-16.08 115.62-16.67 116.15-17.09L116.15-17.09 127.75-26.44 137.91-26.44 122.97-14.4ZM113.35-37.55L113.35 0 107 0 107-37.55 113.35-37.55ZM173.82-35.01L173.82-28.66 159.83-28.66 159.83 0 153.48 0 153.48-28.66 139.47-28.66 139.47-35.01 173.82-35.01ZM206.63-26.39L206.63-3.2Q206.63-2.51 206.38-1.93 206.14-1.34 205.71-0.92 205.29-0.49 204.71-0.24 204.14 0 203.48 0L203.48 0 189.12 0Q187.95 0 186.62-0.27 185.29-0.54 184-1.14 182.7-1.73 181.49-2.65 180.29-3.56 179.38-4.87 178.48-6.18 177.93-7.89 177.38-9.59 177.38-11.74L177.38-11.74 177.38-26.39 183.73-26.39 183.73-11.74Q183.73-10.5 184.15-9.51 184.58-8.52 185.31-7.81 186.05-7.1 187.04-6.73 188.02-6.35 189.17-6.35L189.17-6.35 200.28-6.35 200.28-26.39 206.63-26.39ZM241.68-17.5L241.68-8.91Q241.68-8.01 241.48-7.01 241.27-6.01 240.83-5.02 240.39-4.03 239.69-3.13 239-2.22 238.01-1.53 237.02-0.83 235.73-0.42 234.43 0 232.8 0L232.8 0 221.35 0Q220.44 0 219.44-0.21 218.44-0.42 217.45-0.85 216.46-1.29 215.56-1.99 214.66-2.69 213.96-3.67 213.27-4.66 212.85-5.97 212.44-7.28 212.44-8.91L212.44-8.91 212.44-37.55 218.78-37.55 218.78-8.91Q218.78-7.74 219.52-7.04 220.25-6.35 221.35-6.35L221.35-6.35 232.8-6.35Q233.99-6.35 234.67-7.06 235.34-7.76 235.34-8.91L235.34-8.91 235.34-17.5Q235.34-18.7 234.63-19.37 233.92-20.04 232.8-20.04L232.8-20.04 221.35-20.04 221.35-26.39 232.8-26.39Q233.7-26.39 234.7-26.18 235.7-25.98 236.69-25.54 237.68-25.1 238.58-24.4 239.49-23.71 240.17-22.72 240.85-21.73 241.27-20.43 241.68-19.14 241.68-17.5L241.68-17.5ZM275.5-17.65L275.5-17.65Q275.5-16.33 275.03-14.81 274.57-13.28 273.53-11.98 272.49-10.67 270.82-9.79 269.15-8.91 266.75-8.91L266.75-8.91 255.3-8.91 255.3-14.94 266.75-14.94Q268.05-14.94 268.76-15.73 269.46-16.53 269.46-17.7L269.46-17.7Q269.46-18.95 268.67-19.65 267.88-20.36 266.75-20.36L266.75-20.36 255.3-20.36Q254.01-20.36 253.3-19.57 252.59-18.77 252.59-17.6L252.59-17.6 252.59-8.74Q252.59-7.47 253.39-6.76 254.18-6.05 255.35-6.05L255.35-6.05 266.75-6.05 266.75 0 255.3 0Q253.99 0 252.46-0.46 250.93-0.93 249.63-1.97 248.32-3 247.44-4.68 246.56-6.35 246.56-8.74L246.56-8.74 246.56-17.65Q246.56-18.97 247.03-20.5 247.49-22.02 248.53-23.33 249.57-24.63 251.24-25.51 252.91-26.39 255.3-26.39L255.3-26.39 266.75-26.39Q268.07-26.39 269.6-25.93 271.13-25.46 272.43-24.43 273.74-23.39 274.62-21.72 275.5-20.04 275.5-17.65Z" fill="#fcdb7c" data-fill-palette-color="primary"></path></g></svg></g></svg></g></svg></g></svg></g><g transform="matrix(1,0,0,1,421.4372234076448,0)"><svg viewBox="0 0 145.5107201088108 145.5107201088108" height="145.5107201088108" width="145.5107201088108"><g><svg></svg></g><g id="icon-0"><svg viewBox="0 0 145.5107201088108 145.5107201088108" height="145.5107201088108" width="145.5107201088108"><g><path d="M0 72.755c0-40.182 32.574-72.755 72.755-72.755 40.182 0 72.755 32.574 72.756 72.755 0 40.182-32.574 72.755-72.756 72.756-40.182 0-72.755-32.574-72.755-72.756zM72.755 140.561c37.448 0 67.805-30.357 67.806-67.806 0-37.448-30.357-67.805-67.806-67.805-37.448 0-67.805 30.357-67.805 67.805 0 37.448 30.357 67.805 67.805 67.806z" data-fill-palette-color="accent" fill="#fcdb7c" stroke="transparent"></path></g><g transform="matrix(1,0,0,1,39.00468289717952,34.48885231936772)"><svg viewBox="0 0 67.50135431445176 76.53301547007536" height="76.53301547007536" width="67.50135431445176"><g><svg xmlns="http://www.w3.org/2000/svg" xmlns:xlink="http://www.w3.org/1999/xlink" version="1.1" x="0" y="0" viewBox="5.9 0 88.199 100" enable-background="new 0 0 100 100" xml:space="preserve" height="76.53301547007536" width="67.50135431445176" class="icon-cg-0" data-fill-palette-color="accent" id="cg-0"><path d="M5.9 9.777C5.9 4.377 10.276 0 15.676 0c1.677 0 2.74 0.438 4.61 1.182l68.577 39.9c3.189 1.89 4.666 4.927 5.236 8.428v0.982c-0.57 3.499-2.047 6.537-5.236 8.428L20.287 98.819c-1.871 0.745-2.934 1.181-4.61 1.181-5.4 0-9.776-4.377-9.776-9.777V9.777z" fill="#fcdb7c" data-fill-palette-color="accent"></path></svg></g></svg></g></svg></g></svg></g></svg></g><defs></defs></svg><rect width="395.52" height="101.51267091731924" fill="none" stroke="none" visibility="hidden"></rect></g></svg></g></svg>